{
  "accessors": [
    {
      "bufferView": 2,
      "componentType": 5126,
      "count": 8267,
      "max": [
        228.88888549804688,
        214.24609375,
        25.0
      ],
      "min": [
        -228.888916015625,
        -214.24607849121094,
        -25.0
      ],
      "type": "VEC3"
    },
    {
      "bufferView": 2,
      "byteOffset": 99204,
      "componentType": 5126,
      "count": 8267,
      "max": [
        1.0,
        1.0,
        1.0
      ],
      "min": [
        -1.0,
        -1.0,
        -1.0
      ],
      "type": "VEC3"
    },
    {
      "bufferView": 3,
      "componentType": 5126,
      "count": 8267,
      "max": [
        1.0,
        0.999987781047821,
        1.0,
        1.0
      ],
      "min": [
        -0.38268381357192993,
        -0.9999982118606567,
        -1.0,
        1.0
      ],
      "type": "VEC4"
    },
    {
      "bufferView": 1,
      "componentType": 5126,
      "count": 8267,
      "max": [
        0.998815655708313,
        0.9861785173416138
      ],
      "min": [
        0.01944226771593094,
        0.021161910146474838
      ],
      "type": "VEC2"
    },
    {
      "bufferView": 0,
      "componentType": 5125,
      "count": 25071,
      "type": "SCALAR"
    }
  ],
  "asset": {
    "extras": {
      "author": "Origicube (https://sketchfab.com/Origicube)",
      "license": "CC-BY-4.0 (http://creativecommons.org/licenses/by/4.0/)",
      "source": "https://sketchfab.com/3d-models/rolling-shutter-bd01deecf45d4b429e97c0cb23116f06",
      "title": "Rolling Shutter"
    },
    "generator": "Sketchfab-12.68.0",
    "version": "2.0"
  },
  "bufferViews": [
    {
      "buffer": 0,
      "byteLength": 100284,
      "name": "floatBufferViews",
      "target": 34963
    },
    {
      "buffer": 0,
      "byteLength": 66136,
      "byteOffset": 100284,
      "byteStride": 8,
      "name": "floatBufferViews",
      "target": 34962
    },
    {
      "buffer": 0,
      "byteLength": 198408,
      "byteOffset": 166420,
      "byteStride": 12,
      "name": "floatBufferViews",
      "target": 34962
    },
    {
      "buffer": 0,
      "byteLength": 132272,
      "byteOffset": 364828,
      "byteStride": 16,
      "name": "floatBufferViews",
      "target": 34962
    }
  ],
  "buffers": [
    {
      "byteLength": 497100,
      "uri": "scene.bin"
    }
  ],
  "images": [
    {
      "uri": "textures/RollingShutter_mat_baseColor.png"
    },
    {
      "uri": "textures/RollingShutter_mat_metallicRoughness.png"
    },
    {
      "uri": "textures/RollingShutter_mat_normal.png"
    }
  ],
  "materials": [
    {
      "doubleSided": true,
      "name": "RollingShutter_mat",
      "normalTexture": {
        "index": 2
      },
      "occlusionTexture": {
        "index": 1
      },
      "pbrMetallicRoughness": {
        "baseColorTexture": {
          "index": 0
        },
        "metallicRoughnessTexture": {
          "index": 1
        }
      }
    }
  ],
  "meshes": [
    {
      "name": "RollingShutter_RollingShutter_mat_0",
      "primitives": [
        {
          "attributes": {
            "NORMAL": 1,
            "POSITION": 0,
            "TANGENT": 2,
            "TEXCOORD_0": 3
          },
          "indices": 4,
          "material": 0,
          "mode": 4
        }
      ]
    }
  ],
  "nodes": [
    {
      "children": [
        1
      ],
      "matrix": [
        1.0,
        0.0,
        0.0,
        0.0,
        0.0,
        2.220446049250313e-16,
        -1.0,
        0.0,
        0.0,
        1.0,
        2.220446049250313e-16,
        0.0,
        0.0,
        0.0,
        0.0,
        1.0
      ],
      "name": "Sketchfab_model"
    },
    {
      "children": [
        2
      ],
      "matrix": [
        1.0,
        0.0,
        0.0,
        0.0,
        0.0,
        0.0,
        1.0,
        0.0,
        0.0,
        -1.0,
        0.0,
        0.0,
        0.0,
        0.0,
        0.0,
        1.0
      ],
      "name": "RollingShutter.fbx"
    },
    {
      "children": [
        3
      ],
      "name": "RootNode"
    },
    {
      "children": [
        4
      ],
      "matrix": [
        0.009999999776482582,
        0.0,
        0.0,
        0.0,
        0.0,
        0.009999999776482582,
        0.0,
        0.0,
        0.0,
        0.0,
        0.009999999776482582,
        0.0,
        0.0,
        0.0,
        0.0,
        1.0
      ],
      "name": "RollingShutter"
    },
    {
      "mesh": 0,
      "name": "RollingShutter_RollingShutter_mat_0"
    }
  ],
  "samplers": [
    {
      "magFilter": 9729,
      "minFilter": 9987,
      "wrapS": 10497,
      "wrapT": 10497
    }
  ],
  "scene": 0,
  "scenes": [
    {
      "name": "Sketchfab_Scene",
      "nodes": [
        0
      ]
    }
  ],
  "textures": [
    {
      "sampler": 0,
      "source": 0
    },
    {
      "sampler": 0,
      "source": 1
    },
    {
      "sampler": 0,
      "source": 2
    }
  ]
}
