{
  "accessors": [
    {
      "bufferView": 2,
      "componentType": 5126,
      "count": 291,
      "max": [
        3.887366533279419,
        1.0979223251342773,
        3.095539093017578
      ],
      "min": [
        -2.24723744392395,
        1.0056705474853516,
        -2.2096729278564453
      ],
      "type": "VEC3"
    },
    {
      "bufferView": 2,
      "byteOffset": 3492,
      "componentType": 5126,
      "count": 291,
      "max": [
        1.0,
        1.0,
        1.0
      ],
      "min": [
        -1.0,
        -1.0,
        -1.0
      ],
      "type": "VEC3"
    },
    {
      "bufferView": 1,
      "componentType": 5126,
      "count": 291,
      "max": [
        0.875,
        1.0
      ],
      "min": [
        0.0,
        0.0
      ],
      "type": "VEC2"
    },
    {
      "bufferView": 1,
      "byteOffset": 2328,
      "componentType": 5126,
      "count": 291,
      "max": [
        4.0774993896484375,
        3.240262508392334
      ],
      "min": [
        -2.1938583850860596,
        -2.0649495124816895
      ],
      "type": "VEC2"
    },
    {
      "bufferView": 0,
      "componentType": 5125,
      "count": 774,
      "type": "SCALAR"
    },
    {
      "bufferView": 2,
      "byteOffset": 6984,
      "componentType": 5126,
      "count": 2352,
      "max": [
        3.848057508468628,
        1.020957112312317,
        3.026679515838623
      ],
      "min": [
        -2.216262102127075,
        -0.004667895380407572,
        -2.1975836753845215
      ],
      "type": "VEC3"
    },
    {
      "bufferView": 2,
      "byteOffset": 35208,
      "componentType": 5126,
      "count": 2352,
      "max": [
        1.0,
        1.0,
        1.0
      ],
      "min": [
        -1.0,
        -1.0,
        -1.0
      ],
      "type": "VEC3"
    },
    {
      "bufferView": 1,
      "byteOffset": 4656,
      "componentType": 5126,
      "count": 2352,
      "max": [
        0.6283813714981079,
        1.0
      ],
      "min": [
        0.0,
        0.1158519983291626
      ],
      "type": "VEC2"
    },
    {
      "bufferView": 1,
      "byteOffset": 23472,
      "componentType": 5126,
      "count": 2352,
      "max": [
        4.3033037185668945,
        3.9117798805236816
      ],
      "min": [
        -2.9117798805236816,
        -1.3121404647827148
      ],
      "type": "VEC2"
    },
    {
      "bufferView": 0,
      "byteOffset": 3096,
      "componentType": 5125,
      "count": 4056,
      "type": "SCALAR"
    },
    {
      "bufferView": 2,
      "byteOffset": 63432,
      "componentType": 5126,
      "count": 12312,
      "max": [
        3.921630620956421,
        1.5326136350631714,
        2.490445613861084
      ],
      "min": [
        -2.289834976196289,
        0.587465763092041,
        -2.2711565494537354
      ],
      "type": "VEC3"
    },
    {
      "bufferView": 2,
      "byteOffset": 211176,
      "componentType": 5126,
      "count": 12312,
      "max": [
        1.0,
        1.0,
        1.0
      ],
      "min": [
        -1.0,
        -1.0,
        -1.0
      ],
      "type": "VEC3"
    },
    {
      "bufferView": 1,
      "byteOffset": 42288,
      "componentType": 5126,
      "count": 12312,
      "max": [
        0.6538342237472534,
        1.0
      ],
      "min": [
        0.0,
        0.8782938718795776
      ],
      "type": "VEC2"
    },
    {
      "bufferView": 1,
      "byteOffset": 140784,
      "componentType": 5126,
      "count": 12312,
      "max": [
        1.0000001192092896,
        1.0
      ],
      "min": [
        -2.220446578645905e-16,
        0.0
      ],
      "type": "VEC2"
    },
    {
      "bufferView": 1,
      "byteOffset": 239280,
      "componentType": 5126,
      "count": 12312,
      "max": [
        0.6538342237472534,
        1.0
      ],
      "min": [
        0.0,
        0.8782938718795776
      ],
      "type": "VEC2"
    },
    {
      "bufferView": 0,
      "byteOffset": 19320,
      "componentType": 5125,
      "count": 57018,
      "type": "SCALAR"
    },
    {
      "bufferView": 2,
      "byteOffset": 358920,
      "componentType": 5126,
      "count": 440,
      "max": [
        3.7714791297912598,
        0.11047568172216415,
        2.8858773708343506
      ],
      "min": [
        -2.1392300128936768,
        -0.09992580860853195,
        -2.1169967651367188
      ],
      "type": "VEC3"
    },
    {
      "bufferView": 2,
      "byteOffset": 364200,
      "componentType": 5126,
      "count": 440,
      "max": [
        1.0,
        0.9744753837585449,
        1.0
      ],
      "min": [
        -1.0,
        -0.9744535088539124,
        -1.0
      ],
      "type": "VEC3"
    },
    {
      "bufferView": 1,
      "byteOffset": 337776,
      "componentType": 5126,
      "count": 440,
      "max": [
        0.3915022611618042,
        0.6936410665512085
      ],
      "min": [
        0.3368704915046692,
        0.5875043869018555
      ],
      "type": "VEC2"
    },
    {
      "bufferView": 1,
      "byteOffset": 341296,
      "componentType": 5126,
      "count": 440,
      "max": [
        4.2639875411987305,
        1.2723169326782227
      ],
      "min": [
        -0.28231728076934814,
        -1.2767343521118164
      ],
      "type": "VEC2"
    },
    {
      "bufferView": 0,
      "byteOffset": 247392,
      "componentType": 5125,
      "count": 600,
      "type": "SCALAR"
    }
  ],
  "asset": {
    "extras": {
      "author": "Jawahar Yokesh (https://sketchfab.com/Jawahar_Yokesh)",
      "license": "CC-BY-4.0 (http://creativecommons.org/licenses/by/4.0/)",
      "source": "https://sketchfab.com/3d-models/chemistry-lab-table-fc5951d8af674da4bf55aef0693ff1d0",
      "title": "Chemistry Lab Table"
    },
    "generator": "Sketchfab-16.15.0",
    "version": "2.0"
  },
  "bufferViews": [
    {
      "buffer": 0,
      "byteLength": 249792,
      "name": "floatBufferViews",
      "target": 34963
    },
    {
      "buffer": 0,
      "byteLength": 344816,
      "byteOffset": 249792,
      "byteStride": 8,
      "name": "floatBufferViews",
      "target": 34962
    },
    {
      "buffer": 0,
      "byteLength": 369480,
      "byteOffset": 594608,
      "byteStride": 12,
      "name": "floatBufferViews",
      "target": 34962
    }
  ],
  "buffers": [
    {
      "byteLength": 964088,
      "uri": "scene.bin"
    }
  ],
  "extensionsUsed": [
    "KHR_materials_specular",
    "KHR_texture_transform"
  ],
  "images": [
    {
      "uri": "textures/Nickel_metal-02_metallicRoughness.png"
    }
  ],
  "materials": [
    {
      "doubleSided": true,
      "extensions": {
        "KHR_materials_specular": {
          "specularColorFactor": [
            1.0,
            1.0,
            1.0
          ],
          "specularFactor": 1.0
        }
      },
      "name": "Procedual_Marble_Granite_Black_Galaxy",
      "pbrMetallicRoughness": {
        "baseColorFactor": [
          0.010299700791112492,
          0.010299700791112492,
          0.010299700791112492,
          1.0
        ],
        "roughnessFactor": 0.047238239202252806
      }
    },
    {
      "doubleSided": true,
      "name": "Gray_white_plastic",
      "pbrMetallicRoughness": {
        "baseColorFactor": [
          0.873491,
          0.83992,
          0.775067,
          1.0
        ],
        "metallicFactor": 0.0
      }
    },
    {
      "doubleSided": true,
      "extensions": {
        "KHR_materials_specular": {
          "specularColorFactor": [
            1.0,
            1.0,
            1.0
          ],
          "specularFactor": 0.5287635162316685
        }
      },
      "name": "Nickel_metal-02",
      "pbrMetallicRoughness": {
        "baseColorFactor": [
          0.678013,
          0.644561,
          0.605718,
          1.0
        ],
        "metallicRoughnessTexture": {
          "extensions": {
            "KHR_texture_transform": {
              "offset": [
                0,
                -1
              ],
              "scale": [
                2,
                2
              ]
            }
          },
          "index": 0
        },
        "roughnessFactor": 0.0
      }
    },
    {
      "doubleSided": true,
      "name": "Material.002",
      "pbrMetallicRoughness": {
        "baseColorFactor": [
          0.039254,
          0.039254,
          0.039254,
          1.0
        ],
        "metallicFactor": 0.0,
        "roughnessFactor": 0.5
      }
    }
  ],
  "meshes": [
    {
      "name": "Object_0",
      "primitives": [
        {
          "attributes": {
            "NORMAL": 1,
            "POSITION": 0,
            "TEXCOORD_0": 2,
            "TEXCOORD_1": 3
          },
          "indices": 4,
          "material": 0,
          "mode": 4
        }
      ]
    },
    {
      "name": "Object_1",
      "primitives": [
        {
          "attributes": {
            "NORMAL": 6,
            "POSITION": 5,
            "TEXCOORD_0": 7,
            "TEXCOORD_1": 8
          },
          "indices": 9,
          "material": 1,
          "mode": 4
        }
      ]
    },
    {
      "name": "Object_2",
      "primitives": [
        {
          "attributes": {
            "NORMAL": 11,
            "POSITION": 10,
            "TEXCOORD_0": 12,
            "TEXCOORD_1": 13,
            "TEXCOORD_2": 14
          },
          "indices": 15,
          "material": 2,
          "mode": 4
        }
      ]
    },
    {
      "name": "Object_3",
      "primitives": [
        {
          "attributes": {
            "NORMAL": 17,
            "POSITION": 16,
            "TEXCOORD_0": 18,
            "TEXCOORD_1": 19
          },
          "indices": 20,
          "material": 3,
          "mode": 4
        }
      ]
    }
  ],
  "nodes": [
    {
      "children": [
        1
      ],
      "matrix": [
        1.0,
        0.0,
        0.0,
        0.0,
        0.0,
        2.220446049250313e-16,
        -1.0,
        0.0,
        0.0,
        1.0,
        2.220446049250313e-16,
        0.0,
        0.0,
        0.0,
        0.0,
        1.0
      ],
      "name": "Sketchfab_model"
    },
    {
      "children": [
        2
      ],
      "name": "root"
    },
    {
      "children": [
        3
      ],
      "matrix": [
        1.0,
        0.0,
        0.0,
        0.0,
        0.0,
        2.220446049250313e-16,
        1.0,
        0.0,
        0.0,
        -1.0,
        2.220446049250313e-16,
        0.0,
        0.0,
        0.0,
        0.0,
        1.0
      ],
      "name": "GLTF_SceneRootNode"
    },
    {
      "children": [
        4,
        5,
        6,
        7
      ],
      "name": "Cube_0"
    },
    {
      "mesh": 0,
      "name": "Object_4"
    },
    {
      "mesh": 1,
      "name": "Object_5"
    },
    {
      "mesh": 2,
      "name": "Object_6"
    },
    {
      "mesh": 3,
      "name": "Object_7"
    }
  ],
  "samplers": [
    {
      "magFilter": 9729,
      "minFilter": 9987,
      "wrapS": 10497,
      "wrapT": 10497
    }
  ],
  "scene": 0,
  "scenes": [
    {
      "name": "Sketchfab_Scene",
      "nodes": [
        0
      ]
    }
  ],
  "textures": [
    {
      "sampler": 0,
      "source": 0
    }
  ]
}
