{
  "accessors": [
    {
      "bufferView": 2,
      "componentType": 5126,
      "count": 80,
      "max": [
        25.756900787353516,
        -2.349600076675415,
        74.97689819335938
      ],
      "min": [
        -24.867399215698242,
        -11.553299903869629,
        7.052700042724609
      ],
      "type": "VEC3"
    },
    {
      "bufferView": 2,
      "byteOffset": 960,
      "componentType": 5126,
      "count": 80,
      "max": [
        0.717276394367218,
        0.6302980184555054,
        0.7172977924346924
      ],
      "min": [
        -0.717276394367218,
        -0.6302980184555054,
        -0.717276394367218
      ],
      "type": "VEC3"
    },
    {
      "bufferView": 1,
      "componentType": 5126,
      "count": 80,
      "max": [
        0.5551000237464905,
        0.1875
      ],
      "min": [
        0.5548999905586243,
        0.125
      ],
      "type": "VEC2"
    },
    {
      "bufferView": 0,
      "componentType": 5125,
      "count": 420,
      "type": "SCALAR"
    },
    {
      "bufferView": 2,
      "byteOffset": 1920,
      "componentType": 5126,
      "count": 492,
      "max": [
        29.950000762939453,
        13.06029987335205,
        38.42729949951172
      ],
      "min": [
        -29.105100631713867,
        -12.53030014038086,
        33.906700134277344
      ],
      "type": "VEC3"
    },
    {
      "bufferView": 2,
      "byteOffset": 7824,
      "componentType": 5126,
      "count": 492,
      "max": [
        1.0,
        1.0,
        1.0
      ],
      "min": [
        -1.0,
        -1.0,
        -1.0
      ],
      "type": "VEC3"
    },
    {
      "bufferView": 1,
      "byteOffset": 640,
      "componentType": 5126,
      "count": 492,
      "max": [
        0.9994999766349792,
        0.9911999702453613
      ],
      "min": [
        0.0005000000237487257,
        0.4390000104904175
      ],
      "type": "VEC2"
    },
    {
      "bufferView": 0,
      "byteOffset": 1680,
      "componentType": 5125,
      "count": 1998,
      "type": "SCALAR"
    },
    {
      "bufferView": 2,
      "byteOffset": 13728,
      "componentType": 5126,
      "count": 450,
      "max": [
        26.928699493408203,
        -2.603600025177002,
        52.9281005859375
      ],
      "min": [
        -26.071199417114258,
        -11.972200393676758,
        12.904000282287598
      ],
      "type": "VEC3"
    },
    {
      "bufferView": 2,
      "byteOffset": 19128,
      "componentType": 5126,
      "count": 450,
      "max": [
        0.0005999999702908099,
        0.0,
        1.0
      ],
      "min": [
        -0.00030000804690644145,
        -1.0,
        -1.0
      ],
      "type": "VEC3"
    },
    {
      "bufferView": 1,
      "byteOffset": 4576,
      "componentType": 5126,
      "count": 450,
      "max": [
        0.40709999203681946,
        0.24390000104904175
      ],
      "min": [
        0.0,
        0.0
      ],
      "type": "VEC2"
    },
    {
      "bufferView": 0,
      "byteOffset": 9672,
      "componentType": 5125,
      "count": 1680,
      "type": "SCALAR"
    },
    {
      "bufferView": 2,
      "byteOffset": 24528,
      "componentType": 5126,
      "count": 16084,
      "max": [
        30.14069938659668,
        12.962800025939941,
        3.0067999362945557
      ],
      "min": [
        -29.76180076599121,
        -12.862199783325195,
        1.019700050354004
      ],
      "type": "VEC3"
    },
    {
      "bufferView": 2,
      "byteOffset": 217536,
      "componentType": 5126,
      "count": 16084,
      "max": [
        0.9999909400939941,
        0.9994238615036011,
        0.9999977350234985
      ],
      "min": [
        -0.9999909400939941,
        -0.9996693730354309,
        -1.0
      ],
      "type": "VEC3"
    },
    {
      "bufferView": 1,
      "byteOffset": 8176,
      "componentType": 5126,
      "count": 16084,
      "max": [
        0.833299994468689,
        1.9458999633789063
      ],
      "min": [
        -0.2150000035762787,
        -0.2150000035762787
      ],
      "type": "VEC2"
    },
    {
      "bufferView": 0,
      "byteOffset": 16392,
      "componentType": 5125,
      "count": 90672,
      "type": "SCALAR"
    },
    {
      "bufferView": 2,
      "byteOffset": 410544,
      "componentType": 5126,
      "count": 2272,
      "max": [
        30.14069938659668,
        12.962800025939941,
        3.0076000690460205
      ],
      "min": [
        -30.054899215698242,
        -13.025799751281738,
        1.019700050354004
      ],
      "type": "VEC3"
    },
    {
      "bufferView": 2,
      "byteOffset": 437808,
      "componentType": 5126,
      "count": 2272,
      "max": [
        0.9987204074859619,
        0.9994511008262634,
        0.7436226010322571
      ],
      "min": [
        -0.9990997910499573,
        -0.9994428157806396,
        -0.99741131067276
      ],
      "type": "VEC3"
    },
    {
      "bufferView": 1,
      "byteOffset": 136848,
      "componentType": 5126,
      "count": 2272,
      "max": [
        1.0,
        0.8898000121116638
      ],
      "min": [
        -0.2150000035762787,
        -0.2150000035762787
      ],
      "type": "VEC2"
    },
    {
      "bufferView": 0,
      "byteOffset": 379080,
      "componentType": 5125,
      "count": 8184,
      "type": "SCALAR"
    },
    {
      "bufferView": 2,
      "byteOffset": 465072,
      "componentType": 5126,
      "count": 10528,
      "max": [
        30.14069938659668,
        11.305700302124023,
        2.731100082397461
      ],
      "min": [
        -30.14069938659668,
        -13.06029987335205,
        2.278899908065796
      ],
      "type": "VEC3"
    },
    {
      "bufferView": 2,
      "byteOffset": 591408,
      "componentType": 5126,
      "count": 10528,
      "max": [
        0.9999966621398926,
        0.9998509883880615,
        0.9999979734420776
      ],
      "min": [
        -0.9999680519104004,
        -0.9998361468315125,
        -0.9999979734420776
      ],
      "type": "VEC3"
    },
    {
      "bufferView": 1,
      "byteOffset": 155024,
      "componentType": 5126,
      "count": 10528,
      "max": [
        1.0,
        1.0
      ],
      "min": [
        0.833299994468689,
        0.5
      ],
      "type": "VEC2"
    },
    {
      "bufferView": 0,
      "byteOffset": 411816,
      "componentType": 5125,
      "count": 60744,
      "type": "SCALAR"
    },
    {
      "bufferView": 2,
      "byteOffset": 717744,
      "componentType": 5126,
      "count": 80,
      "max": [
        30.137500762939453,
        12.962800025939941,
        2.625999927520752
      ],
      "min": [
        -29.759000778198242,
        -12.859100341796875,
        2.1903998851776123
      ],
      "type": "VEC3"
    },
    {
      "bufferView": 2,
      "byteOffset": 718704,
      "componentType": 5126,
      "count": 80,
      "max": [
        0.9618043303489685,
        0.9628086090087891,
        0.8042023777961731
      ],
      "min": [
        -0.9561324715614319,
        -0.9429466128349304,
        -0.5042955279350281
      ],
      "type": "VEC3"
    },
    {
      "bufferView": 1,
      "byteOffset": 239248,
      "componentType": 5126,
      "count": 80,
      "max": [
        0.833299994468689,
        0.9954000115394592
      ],
      "min": [
        0.0,
        0.49300000071525574
      ],
      "type": "VEC2"
    },
    {
      "bufferView": 0,
      "byteOffset": 654792,
      "componentType": 5125,
      "count": 144,
      "type": "SCALAR"
    },
    {
      "bufferView": 2,
      "byteOffset": 719664,
      "componentType": 5126,
      "count": 2952,
      "max": [
        29.02239990234375,
        11.752900123596191,
        69.50250244140625
      ],
      "min": [
        -28.177600860595703,
        -10.777700424194336,
        13.23270034790039
      ],
      "type": "VEC3"
    },
    {
      "bufferView": 2,
      "byteOffset": 755088,
      "componentType": 5126,
      "count": 2952,
      "max": [
        0.9948251247406006,
        0.7764723300933838,
        0.9999991655349731
      ],
      "min": [
        -0.9948251247406006,
        -0.8786891102790833,
        -0.9999991655349731
      ],
      "type": "VEC3"
    },
    {
      "bufferView": 0,
      "byteOffset": 655368,
      "componentType": 5125,
      "count": 6912,
      "type": "SCALAR"
    },
    {
      "bufferView": 2,
      "byteOffset": 790512,
      "componentType": 5126,
      "count": 7176,
      "max": [
        29.02239990234375,
        11.752900123596191,
        69.50250244140625
      ],
      "min": [
        -28.177600860595703,
        -10.777700424194336,
        13.23270034790039
      ],
      "type": "VEC3"
    },
    {
      "bufferView": 2,
      "byteOffset": 876624,
      "componentType": 5126,
      "count": 7176,
      "max": [
        1.0,
        0.9904608726501465,
        1.0
      ],
      "min": [
        -1.0,
        -0.9904608726501465,
        -1.0
      ],
      "type": "VEC3"
    },
    {
      "bufferView": 0,
      "byteOffset": 683016,
      "componentType": 5125,
      "count": 11688,
      "type": "SCALAR"
    },
    {
      "bufferView": 2,
      "byteOffset": 962736,
      "componentType": 5126,
      "count": 7420,
      "max": [
        29.02239990234375,
        11.752900123596191,
        69.50250244140625
      ],
      "min": [
        -28.177600860595703,
        -10.777700424194336,
        13.23270034790039
      ],
      "type": "VEC3"
    },
    {
      "bufferView": 2,
      "byteOffset": 1051776,
      "componentType": 5126,
      "count": 7420,
      "max": [
        1.0,
        0.9904608726501465,
        1.0
      ],
      "min": [
        -1.0,
        -0.9904608726501465,
        -1.0
      ],
      "type": "VEC3"
    },
    {
      "bufferView": 0,
      "byteOffset": 729768,
      "componentType": 5125,
      "count": 13344,
      "type": "SCALAR"
    },
    {
      "bufferView": 2,
      "byteOffset": 1140816,
      "componentType": 5126,
      "count": 1947,
      "max": [
        29.949899673461914,
        13.06029987335205,
        77.8604965209961
      ],
      "min": [
        -29.105199813842773,
        -12.53030014038086,
        2.8538999557495117
      ],
      "type": "VEC3"
    },
    {
      "bufferView": 2,
      "byteOffset": 1164180,
      "componentType": 5126,
      "count": 1947,
      "max": [
        1.0,
        1.0,
        1.0
      ],
      "min": [
        -1.0,
        -1.0,
        -1.0
      ],
      "type": "VEC3"
    },
    {
      "bufferView": 1,
      "byteOffset": 239888,
      "componentType": 5126,
      "count": 1947,
      "max": [
        29.466400146484375,
        12.678199768066406
      ],
      "min": [
        -56.87519836425781,
        -1.5748000144958496
      ],
      "type": "VEC2"
    },
    {
      "bufferView": 0,
      "byteOffset": 783144,
      "componentType": 5125,
      "count": 10704,
      "type": "SCALAR"
    },
    {
      "bufferView": 2,
      "byteOffset": 1187544,
      "componentType": 5126,
      "count": 4320,
      "max": [
        30.12179946899414,
        12.694499969482422,
        78.03189849853516
      ],
      "min": [
        -29.84910011291504,
        -12.857600212097168,
        0.0010000000474974513
      ],
      "type": "VEC3"
    },
    {
      "bufferView": 2,
      "byteOffset": 1239384,
      "componentType": 5126,
      "count": 4320,
      "max": [
        0.9996435046195984,
        0.9998343586921692,
        1.0
      ],
      "min": [
        -0.9996435046195984,
        -0.9998343586921692,
        -1.0
      ],
      "type": "VEC3"
    },
    {
      "bufferView": 1,
      "byteOffset": 255464,
      "componentType": 5126,
      "count": 4320,
      "max": [
        1.083299994468689,
        1.5748000144958496
      ],
      "min": [
        -56.87519836425781,
        -1.5748000144958496
      ],
      "type": "VEC2"
    },
    {
      "bufferView": 0,
      "byteOffset": 825960,
      "componentType": 5125,
      "count": 22836,
      "type": "SCALAR"
    },
    {
      "bufferView": 2,
      "byteOffset": 1291224,
      "componentType": 5126,
      "count": 15844,
      "max": [
        30.05109977722168,
        12.865099906921387,
        77.2699966430664
      ],
      "min": [
        -29.703100204467773,
        -12.759699821472168,
        0.44440001249313354
      ],
      "type": "VEC3"
    },
    {
      "bufferView": 2,
      "byteOffset": 1481352,
      "componentType": 5126,
      "count": 15844,
      "max": [
        1.0,
        1.0,
        1.0
      ],
      "min": [
        -1.0,
        -1.0,
        -1.0
      ],
      "type": "VEC3"
    },
    {
      "bufferView": 1,
      "byteOffset": 290024,
      "componentType": 5126,
      "count": 15844,
      "max": [
        1.9665000438690186,
        0.942300021648407
      ],
      "min": [
        -1.4785000085830688,
        -0.8234000205993652
      ],
      "type": "VEC2"
    },
    {
      "bufferView": 0,
      "byteOffset": 917304,
      "componentType": 5125,
      "count": 91212,
      "type": "SCALAR"
    },
    {
      "bufferView": 2,
      "byteOffset": 1671480,
      "componentType": 5126,
      "count": 7780,
      "max": [
        29.158100128173828,
        12.268400192260742,
        77.41529846191406
      ],
      "min": [
        -28.313199996948242,
        -11.972200393676758,
        4.969699859619141
      ],
      "type": "VEC3"
    },
    {
      "bufferView": 2,
      "byteOffset": 1764840,
      "componentType": 5126,
      "count": 7780,
      "max": [
        1.0,
        0.730360746383667,
        1.0
      ],
      "min": [
        -1.0,
        -1.0,
        -1.0
      ],
      "type": "VEC3"
    },
    {
      "bufferView": 1,
      "byteOffset": 416776,
      "componentType": 5126,
      "count": 7780,
      "max": [
        28.062599182128906,
        0.25
      ],
      "min": [
        -28.062599182128906,
        -0.13779999315738678
      ],
      "type": "VEC2"
    },
    {
      "bufferView": 0,
      "byteOffset": 1282152,
      "componentType": 5125,
      "count": 41088,
      "type": "SCALAR"
    },
    {
      "bufferView": 2,
      "byteOffset": 1858200,
      "componentType": 5126,
      "count": 4462,
      "max": [
        28.129100799560547,
        -10.881400108337402,
        33.92649841308594
      ],
      "min": [
        -8.782999992370605,
        -11.972299575805664,
        4.969699859619141
      ],
      "type": "VEC3"
    },
    {
      "bufferView": 2,
      "byteOffset": 1911744,
      "componentType": 5126,
      "count": 4462,
      "max": [
        1.0,
        1.0,
        1.0
      ],
      "min": [
        -1.0,
        -1.0,
        -1.0
      ],
      "type": "VEC3"
    },
    {
      "bufferView": 1,
      "byteOffset": 479016,
      "componentType": 5126,
      "count": 4462,
      "max": [
        0.5551000237464905,
        0.25
      ],
      "min": [
        0.0,
        0.0
      ],
      "type": "VEC2"
    },
    {
      "bufferView": 0,
      "byteOffset": 1446504,
      "componentType": 5125,
      "count": 24336,
      "type": "SCALAR"
    },
    {
      "bufferView": 2,
      "byteOffset": 1965288,
      "componentType": 5126,
      "count": 6522,
      "max": [
        28.129100799560547,
        -1.756500005722046,
        77.05999755859375
      ],
      "min": [
        -27.28420066833496,
        -2.8447000980377197,
        50.07170104980469
      ],
      "type": "VEC3"
    },
    {
      "bufferView": 2,
      "byteOffset": 2043552,
      "componentType": 5126,
      "count": 6522,
      "max": [
        1.0,
        1.0,
        1.0
      ],
      "min": [
        -1.0,
        -1.0,
        -1.0
      ],
      "type": "VEC3"
    },
    {
      "bufferView": 1,
      "byteOffset": 514712,
      "componentType": 5126,
      "count": 6522,
      "max": [
        0.6510999798774719,
        0.2506999969482422
      ],
      "min": [
        0.0,
        0.0
      ],
      "type": "VEC2"
    },
    {
      "bufferView": 0,
      "byteOffset": 1543848,
      "componentType": 5125,
      "count": 34488,
      "type": "SCALAR"
    }
  ],
  "asset": {
    "extras": {
      "author": "Chenchanchong (https://sketchfab.com/Chenchanchong)",
      "license": "CC-BY-4.0 (http://creativecommons.org/licenses/by/4.0/)",
      "source": "https://sketchfab.com/3d-models/hospital-medical-treatment-cabinet-9a9edfe3879e4889877bf1dff97c6105",
      "title": "Hospital medical Treatment Cabinet"
    },
    "generator": "Sketchfab-16.72.0",
    "version": "2.0"
  },
  "bufferViews": [
    {
      "buffer": 0,
      "byteLength": 1681800,
      "name": "floatBufferViews",
      "target": 34963
    },
    {
      "buffer": 0,
      "byteLength": 566888,
      "byteOffset": 1681800,
      "byteStride": 8,
      "name": "floatBufferViews",
      "target": 34962
    },
    {
      "buffer": 0,
      "byteLength": 2121816,
      "byteOffset": 2248688,
      "byteStride": 12,
      "name": "floatBufferViews",
      "target": 34962
    }
  ],
  "buffers": [
    {
      "byteLength": 4370504,
      "uri": "scene.bin"
    }
  ],
  "extensionsUsed": [
    "KHR_materials_transmission"
  ],
  "images": [
    {
      "uri": "textures/Archmodels70_017_02_baseColor.jpeg"
    },
    {
      "uri": "textures/Archmodels70_017_07_baseColor.jpeg"
    }
  ],
  "materials": [
    {
      "alphaMode": "BLEND",
      "doubleSided": true,
      "extensions": {
        "KHR_materials_transmission": {
          "transmissionFactor": 1.0
        }
      },
      "name": "Archmodels70_017_01",
      "pbrMetallicRoughness": {
        "baseColorFactor": [
          0.0471,
          0.0471,
          0.0471,
          0.25
        ],
        "metallicFactor": 0.0
      }
    },
    {
      "doubleSided": true,
      "emissiveTexture": {
        "index": 0
      },
      "name": "Archmodels70_017_02",
      "pbrMetallicRoughness": {
        "baseColorTexture": {
          "index": 0
        },
        "metallicFactor": 0.0,
        "roughnessFactor": 0.3944419629682575
      }
    },
    {
      "doubleSided": true,
      "name": "Archmodels70_017_03",
      "pbrMetallicRoughness": {
        "baseColorFactor": [
          0.2863,
          0.5216,
          0.7059,
          1.0
        ],
        "metallicFactor": 0.0
      }
    },
    {
      "doubleSided": true,
      "name": "Archmodels70_017_04",
      "pbrMetallicRoughness": {
        "baseColorFactor": [
          0.349,
          0.349,
          0.349,
          1.0
        ],
        "metallicFactor": 0.0
      }
    },
    {
      "doubleSided": true,
      "name": "Archmodels70_017_05",
      "pbrMetallicRoughness": {
        "baseColorFactor": [
          0.902,
          0.902,
          0.902,
          1.0
        ],
        "metallicFactor": 0.0
      }
    },
    {
      "doubleSided": true,
      "name": "Archmodels70_017_06",
      "pbrMetallicRoughness": {
        "baseColorFactor": [
          0.6471,
          0.6471,
          0.6157,
          1.0
        ],
        "roughnessFactor": 0.42480701158270034
      }
    },
    {
      "doubleSided": true,
      "emissiveTexture": {
        "index": 1
      },
      "name": "Archmodels70_017_07",
      "pbrMetallicRoughness": {
        "baseColorTexture": {
          "index": 1
        },
        "metallicFactor": 0.0
      }
    },
    {
      "doubleSided": true,
      "name": "Archmodels70_017_08",
      "pbrMetallicRoughness": {
        "baseColorFactor": [
          0.8634389824587956,
          0.8634389824587956,
          0.8634389824587956,
          1.0
        ],
        "roughnessFactor": 0.5
      }
    }
  ],
  "meshes": [
    {
      "name": "Object_0",
      "primitives": [
        {
          "attributes": {
            "NORMAL": 1,
            "POSITION": 0,
            "TEXCOORD_0": 2
          },
          "indices": 3,
          "material": 0,
          "mode": 4
        }
      ]
    },
    {
      "name": "Object_1",
      "primitives": [
        {
          "attributes": {
            "NORMAL": 5,
            "POSITION": 4,
            "TEXCOORD_0": 6
          },
          "indices": 7,
          "material": 1,
          "mode": 4
        }
      ]
    },
    {
      "name": "Object_2",
      "primitives": [
        {
          "attributes": {
            "NORMAL": 9,
            "POSITION": 8,
            "TEXCOORD_0": 10
          },
          "indices": 11,
          "material": 2,
          "mode": 4
        }
      ]
    },
    {
      "name": "Object_3",
      "primitives": [
        {
          "attributes": {
            "NORMAL": 13,
            "POSITION": 12,
            "TEXCOORD_0": 14
          },
          "indices": 15,
          "material": 3,
          "mode": 4
        }
      ]
    },
    {
      "name": "Object_4",
      "primitives": [
        {
          "attributes": {
            "NORMAL": 17,
            "POSITION": 16,
            "TEXCOORD_0": 18
          },
          "indices": 19,
          "material": 3,
          "mode": 4
        }
      ]
    },
    {
      "name": "Object_5",
      "primitives": [
        {
          "attributes": {
            "NORMAL": 21,
            "POSITION": 20,
            "TEXCOORD_0": 22
          },
          "indices": 23,
          "material": 3,
          "mode": 4
        }
      ]
    },
    {
      "name": "Object_6",
      "primitives": [
        {
          "attributes": {
            "NORMAL": 25,
            "POSITION": 24,
            "TEXCOORD_0": 26
          },
          "indices": 27,
          "material": 3,
          "mode": 4
        }
      ]
    },
    {
      "name": "Object_7",
      "primitives": [
        {
          "attributes": {
            "NORMAL": 29,
            "POSITION": 28
          },
          "indices": 30,
          "material": 4,
          "mode": 4
        }
      ]
    },
    {
      "name": "Object_8",
      "primitives": [
        {
          "attributes": {
            "NORMAL": 32,
            "POSITION": 31
          },
          "indices": 33,
          "material": 4,
          "mode": 4
        }
      ]
    },
    {
      "name": "Object_9",
      "primitives": [
        {
          "attributes": {
            "NORMAL": 35,
            "POSITION": 34
          },
          "indices": 36,
          "material": 4,
          "mode": 4
        }
      ]
    },
    {
      "name": "Object_10",
      "primitives": [
        {
          "attributes": {
            "NORMAL": 38,
            "POSITION": 37,
            "TEXCOORD_0": 39
          },
          "indices": 40,
          "material": 5,
          "mode": 4
        }
      ]
    },
    {
      "name": "Object_11",
      "primitives": [
        {
          "attributes": {
            "NORMAL": 42,
            "POSITION": 41,
            "TEXCOORD_0": 43
          },
          "indices": 44,
          "material": 6,
          "mode": 4
        }
      ]
    },
    {
      "name": "Object_12",
      "primitives": [
        {
          "attributes": {
            "NORMAL": 46,
            "POSITION": 45,
            "TEXCOORD_0": 47
          },
          "indices": 48,
          "material": 7,
          "mode": 4
        }
      ]
    },
    {
      "name": "Object_13",
      "primitives": [
        {
          "attributes": {
            "NORMAL": 50,
            "POSITION": 49,
            "TEXCOORD_0": 51
          },
          "indices": 52,
          "material": 7,
          "mode": 4
        }
      ]
    },
    {
      "name": "Object_14",
      "primitives": [
        {
          "attributes": {
            "NORMAL": 54,
            "POSITION": 53,
            "TEXCOORD_0": 55
          },
          "indices": 56,
          "material": 7,
          "mode": 4
        }
      ]
    },
    {
      "name": "Object_15",
      "primitives": [
        {
          "attributes": {
            "NORMAL": 58,
            "POSITION": 57,
            "TEXCOORD_0": 59
          },
          "indices": 60,
          "material": 7,
          "mode": 4
        }
      ]
    }
  ],
  "nodes": [
    {
      "children": [
        1
      ],
      "matrix": [
        1.0,
        0.0,
        0.0,
        0.0,
        0.0,
        2.220446049250313e-16,
        -1.0,
        0.0,
        0.0,
        1.0,
        2.220446049250313e-16,
        0.0,
        0.0,
        0.0,
        0.0,
        1.0
      ],
      "name": "Sketchfab_model"
    },
    {
      "children": [
        2,
        3,
        4,
        5,
        6,
        7,
        8,
        9,
        10,
        11,
        12,
        13,
        14,
        15,
        16,
        17
      ],
      "name": "017.obj.cleaner.materialmerger.gles"
    },
    {
      "mesh": 0,
      "name": "Object_2"
    },
    {
      "mesh": 1,
      "name": "Object_3"
    },
    {
      "mesh": 2,
      "name": "Object_4"
    },
    {
      "mesh": 3,
      "name": "Object_5"
    },
    {
      "mesh": 4,
      "name": "Object_6"
    },
    {
      "mesh": 5,
      "name": "Object_7"
    },
    {
      "mesh": 6,
      "name": "Object_8"
    },
    {
      "mesh": 7,
      "name": "Object_9"
    },
    {
      "mesh": 8,
      "name": "Object_10"
    },
    {
      "mesh": 9,
      "name": "Object_11"
    },
    {
      "mesh": 10,
      "name": "Object_12"
    },
    {
      "mesh": 11,
      "name": "Object_13"
    },
    {
      "mesh": 12,
      "name": "Object_14"
    },
    {
      "mesh": 13,
      "name": "Object_15"
    },
    {
      "mesh": 14,
      "name": "Object_16"
    },
    {
      "mesh": 15,
      "name": "Object_17"
    }
  ],
  "samplers": [
    {
      "magFilter": 9729,
      "minFilter": 9987,
      "wrapS": 10497,
      "wrapT": 10497
    }
  ],
  "scene": 0,
  "scenes": [
    {
      "name": "Sketchfab_Scene",
      "nodes": [
        0
      ]
    }
  ],
  "textures": [
    {
      "sampler": 0,
      "source": 0
    },
    {
      "sampler": 0,
      "source": 1
    }
  ]
}
