{
  "accessors": [
    {
      "bufferView": 2,
      "componentType": 5126,
      "count": 240,
      "max": [
        9.710861206054688,
        22.343643188476563,
        9.114352226257324
      ],
      "min": [
        -36.95035934448242,
        -22.343643188476563,
        0.0
      ],
      "type": "VEC3"
    },
    {
      "bufferView": 2,
      "byteOffset": 2880,
      "componentType": 5126,
      "count": 240,
      "max": [
        0.8132833242416382,
        1.0,
        1.0
      ],
      "min": [
        -0.8828001022338867,
        -1.0,
        -1.0
      ],
      "type": "VEC3"
    },
    {
      "bufferView": 1,
      "componentType": 5126,
      "count": 240,
      "max": [
        0.9802870154380798,
        0.6043540239334106
      ],
      "min": [
        0.03854700177907944,
        0.003918000031262636
      ],
      "type": "VEC2"
    },
    {
      "bufferView": 0,
      "componentType": 5125,
      "count": 384,
      "type": "SCALAR"
    },
    {
      "bufferView": 2,
      "byteOffset": 5760,
      "componentType": 5126,
      "count": 4533,
      "max": [
        59.10380172729492,
        64.90512084960938,
        25.884187698364258
      ],
      "min": [
        -28.860998153686523,
        -17.84440803527832,
        -0.8197759985923767
      ],
      "type": "VEC3"
    },
    {
      "bufferView": 2,
      "byteOffset": 60156,
      "componentType": 5126,
      "count": 4533,
      "max": [
        1.0,
        1.0,
        1.0
      ],
      "min": [
        -1.0,
        -1.0,
        -1.0
      ],
      "type": "VEC3"
    },
    {
      "bufferView": 1,
      "byteOffset": 1920,
      "componentType": 5126,
      "count": 4533,
      "max": [
        0.9953219890594482,
        0.9483370184898376
      ],
      "min": [
        0.0020600000862032175,
        0.0035719999577850103
      ],
      "type": "VEC2"
    },
    {
      "bufferView": 0,
      "byteOffset": 1536,
      "componentType": 5125,
      "count": 8319,
      "type": "SCALAR"
    },
    {
      "bufferView": 2,
      "byteOffset": 114552,
      "componentType": 5126,
      "count": 1366,
      "max": [
        37.941200256347656,
        12.605628967285156,
        33.72567367553711
      ],
      "min": [
        -27.929418563842773,
        -8.811119079589844,
        -0.18754400312900543
      ],
      "type": "VEC3"
    },
    {
      "bufferView": 2,
      "byteOffset": 130944,
      "componentType": 5126,
      "count": 1366,
      "max": [
        1.0,
        1.0,
        1.0
      ],
      "min": [
        -1.0,
        -1.0,
        -1.0
      ],
      "type": "VEC3"
    },
    {
      "bufferView": 1,
      "byteOffset": 38184,
      "componentType": 5126,
      "count": 1366,
      "max": [
        0.9658309817314148,
        0.9087290167808533
      ],
      "min": [
        0.06654100120067596,
        0.003918000031262636
      ],
      "type": "VEC2"
    },
    {
      "bufferView": 0,
      "byteOffset": 34812,
      "componentType": 5125,
      "count": 2196,
      "type": "SCALAR"
    },
    {
      "bufferView": 2,
      "byteOffset": 147336,
      "componentType": 5126,
      "count": 20,
      "max": [
        58.17281723022461,
        60.2686653137207,
        2.967432975769043
      ],
      "min": [
        26.498544692993164,
        19.305316925048828,
        0.22248099744319916
      ],
      "type": "VEC3"
    },
    {
      "bufferView": 2,
      "byteOffset": 147576,
      "componentType": 5126,
      "count": 20,
      "max": [
        0.0,
        0.1667720526456833,
        1.0
      ],
      "min": [
        -0.031372010707855225,
        -0.0,
        0.9854963421821594
      ],
      "type": "VEC3"
    },
    {
      "bufferView": 1,
      "byteOffset": 49112,
      "componentType": 5126,
      "count": 20,
      "max": [
        1.0,
        1.0
      ],
      "min": [
        0.0,
        0.0
      ],
      "type": "VEC2"
    },
    {
      "bufferView": 0,
      "byteOffset": 43596,
      "componentType": 5125,
      "count": 42,
      "type": "SCALAR"
    }
  ],
  "asset": {
    "extras": {
      "author": "kirbinator505_ (https://sketchfab.com/kirbinator505_)",
      "license": "CC-BY-4.0 (http://creativecommons.org/licenses/by/4.0/)",
      "source": "https://sketchfab.com/3d-models/lab-assets-e6a24a6b31b142d1bcbb1217fd53a53f",
      "title": "Lab Assets"
    },
    "generator": "Sketchfab-15.49.0",
    "version": "2.0"
  },
  "bufferViews": [
    {
      "buffer": 0,
      "byteLength": 43764,
      "name": "floatBufferViews",
      "target": 34963
    },
    {
      "buffer": 0,
      "byteLength": 49272,
      "byteOffset": 43764,
      "byteStride": 8,
      "name": "floatBufferViews",
      "target": 34962
    },
    {
      "buffer": 0,
      "byteLength": 147816,
      "byteOffset": 93036,
      "byteStride": 12,
      "name": "floatBufferViews",
      "target": 34962
    }
  ],
  "buffers": [
    {
      "byteLength": 240852,
      "uri": "gltf.bin"
    }
  ],
  "images": [
    {
      "uri": "textures/lambert2SG_baseColor.png"
    }
  ],
  "materials": [
    {
      "doubleSided": true,
      "name": "initialShadingGroup",
      "pbrMetallicRoughness": {
        "baseColorFactor": [
          0.004542793889602277,
          0.29727038867099975,
          0.6587264102953884,
          1.0
        ],
        "metallicFactor": 0.0,
        "roughnessFactor": 0.6
      }
    },
    {
      "doubleSided": true,
      "name": "lambert2SG",
      "pbrMetallicRoughness": {
        "baseColorTexture": {
          "index": 0
        },
        "metallicFactor": 0.0,
        "roughnessFactor": 0.6
      }
    },
    {
      "alphaMode": "BLEND",
      "doubleSided": true,
      "name": "lambert3SG",
      "pbrMetallicRoughness": {
        "baseColorFactor": [
          1.0,
          1.0,
          1.0,
          0.20010565183582338
        ],
        "metallicFactor": 0.0,
        "roughnessFactor": 0.6
      }
    },
    {
      "doubleSided": true,
      "name": "lambert4SG",
      "pbrMetallicRoughness": {
        "baseColorFactor": [
          0.667727400498243,
          0.667727400498243,
          0.667727400498243,
          1.0
        ],
        "metallicFactor": 0.0,
        "roughnessFactor": 0.6
      }
    }
  ],
  "meshes": [
    {
      "name": "Object_0",
      "primitives": [
        {
          "attributes": {
            "NORMAL": 1,
            "POSITION": 0,
            "TEXCOORD_0": 2
          },
          "indices": 3,
          "material": 0,
          "mode": 4
        }
      ]
    },
    {
      "name": "Object_1",
      "primitives": [
        {
          "attributes": {
            "NORMAL": 5,
            "POSITION": 4,
            "TEXCOORD_0": 6
          },
          "indices": 7,
          "material": 1,
          "mode": 4
        }
      ]
    },
    {
      "name": "Object_2",
      "primitives": [
        {
          "attributes": {
            "NORMAL": 9,
            "POSITION": 8,
            "TEXCOORD_0": 10
          },
          "indices": 11,
          "material": 2,
          "mode": 4
        }
      ]
    },
    {
      "name": "Object_3",
      "primitives": [
        {
          "attributes": {
            "NORMAL": 13,
            "POSITION": 12,
            "TEXCOORD_0": 14
          },
          "indices": 15,
          "material": 3,
          "mode": 4
        }
      ]
    }
  ],
  "nodes": [
    {
      "children": [
        1
      ],
      "matrix": [
        1.0,
        0.0,
        0.0,
        0.0,
        0.0,
        2.220446049250313e-16,
        -1.0,
        0.0,
        0.0,
        1.0,
        2.220446049250313e-16,
        0.0,
        0.0,
        0.0,
        0.0,
        1.0
      ],
      "name": "Sketchfab_model"
    },
    {
      "children": [
        2,
        3,
        4,
        5
      ],
      "name": "d31a172f971746488888f41b5fddb782.obj.cleaner.materialmerger.gles"
    },
    {
      "mesh": 0,
      "name": "Object_2"
    },
    {
      "mesh": 1,
      "name": "Object_3"
    },
    {
      "mesh": 2,
      "name": "Object_4"
    },
    {
      "mesh": 3,
      "name": "Object_5"
    }
  ],
  "samplers": [
    {
      "magFilter": 9729,
      "minFilter": 9987,
      "wrapS": 10497,
      "wrapT": 10497
    }
  ],
  "scene": 0,
  "scenes": [
    {
      "name": "Sketchfab_Scene",
      "nodes": [
        0
      ]
    }
  ],
  "textures": [
    {
      "sampler": 0,
      "source": 0
    }
  ]
}
