{
  "accessors": [
    {
      "bufferView": 2,
      "componentType": 5126,
      "count": 65532,
      "max": [
        280.3442687988281,
        -17.086618423461914,
        105.70865631103516
      ],
      "min": [
        9.803150177001953,
        -93.77083587646484,
        0.10500472038984299
      ],
      "type": "VEC3"
    },
    {
      "bufferView": 2,
      "byteOffset": 786384,
      "componentType": 5126,
      "count": 65532,
      "max": [
        1.0,
        1.0,
        1.0
      ],
      "min": [
        -1.0,
        -1.0,
        -1.0
      ],
      "type": "VEC3"
    },
    {
      "bufferView": 0,
      "componentType": 5125,
      "count": 192840,
      "type": "SCALAR"
    },
    {
      "bufferView": 2,
      "byteOffset": 1572768,
      "componentType": 5126,
      "count": 65532,
      "max": [
        280.4112243652344,
        -47.12685012817383,
        16.929134368896484
      ],
      "min": [
        12.569067001342773,
        -93.70390319824219,
        0.10500472038984299
      ],
      "type": "VEC3"
    },
    {
      "bufferView": 2,
      "byteOffset": 2359152,
      "componentType": 5126,
      "count": 65532,
      "max": [
        1.0,
        1.0,
        1.0
      ],
      "min": [
        -1.0,
        -1.0,
        -1.0
      ],
      "type": "VEC3"
    },
    {
      "bufferView": 0,
      "byteOffset": 771360,
      "componentType": 5125,
      "count": 206910,
      "type": "SCALAR"
    },
    {
      "bufferView": 2,
      "byteOffset": 3145536,
      "componentType": 5126,
      "count": 65532,
      "max": [
        283.1101989746094,
        -34.88471984863281,
        26.338584899902344
      ],
      "min": [
        12.502138137817383,
        -83.50292205810547,
        0.10500472038984299
      ],
      "type": "VEC3"
    },
    {
      "bufferView": 2,
      "byteOffset": 3931920,
      "componentType": 5126,
      "count": 65532,
      "max": [
        1.0,
        1.0,
        1.0
      ],
      "min": [
        -1.0,
        -1.0,
        -1.0
      ],
      "type": "VEC3"
    },
    {
      "bufferView": 0,
      "byteOffset": 1599000,
      "componentType": 5125,
      "count": 196749,
      "type": "SCALAR"
    },
    {
      "bufferView": 2,
      "byteOffset": 4718304,
      "componentType": 5126,
      "count": 65532,
      "max": [
        270.07635498046875,
        -34.86101150512695,
        26.338584899902344
      ],
      "min": [
        12.502138137817383,
        -96.46981811523438,
        0.10500472038984299
      ],
      "type": "VEC3"
    },
    {
      "bufferView": 2,
      "byteOffset": 5504688,
      "componentType": 5126,
      "count": 65532,
      "max": [
        1.0,
        1.0,
        1.0
      ],
      "min": [
        -1.0,
        -1.0,
        -1.0
      ],
      "type": "VEC3"
    },
    {
      "bufferView": 0,
      "byteOffset": 2385996,
      "componentType": 5125,
      "count": 210519,
      "type": "SCALAR"
    },
    {
      "bufferView": 2,
      "byteOffset": 6291072,
      "componentType": 5126,
      "count": 65533,
      "max": [
        280.4112243652344,
        -34.88005065917969,
        16.929134368896484
      ],
      "min": [
        12.502138137817383,
        -93.77083587646484,
        0.10500472038984299
      ],
      "type": "VEC3"
    },
    {
      "bufferView": 2,
      "byteOffset": 7077468,
      "componentType": 5126,
      "count": 65533,
      "max": [
        1.0,
        1.0,
        1.0
      ],
      "min": [
        -1.0,
        -1.0,
        -1.0
      ],
      "type": "VEC3"
    },
    {
      "bufferView": 0,
      "byteOffset": 3228072,
      "componentType": 5125,
      "count": 198969,
      "type": "SCALAR"
    },
    {
      "bufferView": 2,
      "byteOffset": 7863864,
      "componentType": 5126,
      "count": 19819,
      "max": [
        270.143310546875,
        -64.54067993164063,
        26.338584899902344
      ],
      "min": [
        9.803150177001953,
        -96.46981811523438,
        0.10500472038984299
      ],
      "type": "VEC3"
    },
    {
      "bufferView": 2,
      "byteOffset": 8101692,
      "componentType": 5126,
      "count": 19819,
      "max": [
        1.0,
        1.0,
        1.0
      ],
      "min": [
        -1.0,
        -1.0,
        -1.0
      ],
      "type": "VEC3"
    },
    {
      "bufferView": 0,
      "byteOffset": 4023948,
      "componentType": 5125,
      "count": 62307,
      "type": "SCALAR"
    },
    {
      "bufferView": 2,
      "byteOffset": 8339520,
      "componentType": 5126,
      "count": 6300,
      "max": [
        266.7716064453125,
        -17.28346824645996,
        36.96073532104492
      ],
      "min": [
        26.14173126220703,
        -80.13124084472656,
        14.17359447479248
      ],
      "type": "VEC3"
    },
    {
      "bufferView": 2,
      "byteOffset": 8415120,
      "componentType": 5126,
      "count": 6300,
      "max": [
        1.0,
        1.0,
        1.0
      ],
      "min": [
        -1.0,
        -1.0,
        -1.0
      ],
      "type": "VEC3"
    },
    {
      "bufferView": 0,
      "byteOffset": 4273176,
      "componentType": 5125,
      "count": 18810,
      "type": "SCALAR"
    },
    {
      "bufferView": 2,
      "byteOffset": 8490720,
      "componentType": 5126,
      "count": 942,
      "max": [
        292.9133605957031,
        32.30971145629883,
        107.08660888671875
      ],
      "min": [
        0.0,
        -96.46981811523438,
        0.0
      ],
      "type": "VEC3"
    },
    {
      "bufferView": 2,
      "byteOffset": 8502024,
      "componentType": 5126,
      "count": 942,
      "max": [
        1.0,
        1.0,
        1.0
      ],
      "min": [
        -1.0,
        -1.0,
        -1.0
      ],
      "type": "VEC3"
    },
    {
      "bufferView": 0,
      "byteOffset": 4348416,
      "componentType": 5125,
      "count": 1770,
      "type": "SCALAR"
    },
    {
      "bufferView": 2,
      "byteOffset": 8513328,
      "componentType": 5126,
      "count": 65532,
      "max": [
        269.90777587890625,
        -34.88862228393555,
        2.3622047901153564
      ],
      "min": [
        12.737667083740234,
        -93.5353012084961,
        0.7240192890167236
      ],
      "type": "VEC3"
    },
    {
      "bufferView": 2,
      "byteOffset": 9299712,
      "componentType": 5126,
      "count": 65532,
      "max": [
        1.0,
        1.0,
        1.0
      ],
      "min": [
        -1.0,
        -1.0,
        -1.0
      ],
      "type": "VEC3"
    },
    {
      "bufferView": 0,
      "byteOffset": 4355496,
      "componentType": 5125,
      "count": 183225,
      "type": "SCALAR"
    },
    {
      "bufferView": 2,
      "byteOffset": 10086096,
      "componentType": 5126,
      "count": 65534,
      "max": [
        279.6095275878906,
        -35.01312255859375,
        2.3622047901153564
      ],
      "min": [
        12.737667083740234,
        -93.5353012084961,
        0.7240192890167236
      ],
      "type": "VEC3"
    },
    {
      "bufferView": 2,
      "byteOffset": 10872504,
      "componentType": 5126,
      "count": 65534,
      "max": [
        1.0,
        1.0,
        1.0
      ],
      "min": [
        -1.0,
        -1.0,
        -1.0
      ],
      "type": "VEC3"
    },
    {
      "bufferView": 0,
      "byteOffset": 5088396,
      "componentType": 5125,
      "count": 182517,
      "type": "SCALAR"
    },
    {
      "bufferView": 2,
      "byteOffset": 11658912,
      "componentType": 5126,
      "count": 65532,
      "max": [
        280.1756896972656,
        -34.88862228393555,
        2.3622047901153564
      ],
      "min": [
        12.839699745178223,
        -93.5353012084961,
        0.7240192890167236
      ],
      "type": "VEC3"
    },
    {
      "bufferView": 2,
      "byteOffset": 12445296,
      "componentType": 5126,
      "count": 65532,
      "max": [
        1.0,
        1.0,
        1.0
      ],
      "min": [
        -1.0,
        -1.0,
        -1.0
      ],
      "type": "VEC3"
    },
    {
      "bufferView": 0,
      "byteOffset": 5818464,
      "componentType": 5125,
      "count": 183282,
      "type": "SCALAR"
    },
    {
      "bufferView": 2,
      "byteOffset": 13231680,
      "componentType": 5126,
      "count": 9334,
      "max": [
        248.7230682373047,
        -47.32197189331055,
        2.3622047901153564
      ],
      "min": [
        13.831775665283203,
        -93.45955657958984,
        0.7240192890167236
      ],
      "type": "VEC3"
    },
    {
      "bufferView": 2,
      "byteOffset": 13343688,
      "componentType": 5126,
      "count": 9334,
      "max": [
        1.0,
        1.0,
        1.0
      ],
      "min": [
        -1.0,
        -1.0,
        -1.0
      ],
      "type": "VEC3"
    },
    {
      "bufferView": 0,
      "byteOffset": 6551592,
      "componentType": 5125,
      "count": 23496,
      "type": "SCALAR"
    },
    {
      "bufferView": 2,
      "byteOffset": 13455696,
      "componentType": 5126,
      "count": 65532,
      "max": [
        203.56903076171875,
        -81.41902160644531,
        2.158421754837036
      ],
      "min": [
        111.11720275878906,
        -93.70390319824219,
        0.10500472038984299
      ],
      "type": "VEC3"
    },
    {
      "bufferView": 2,
      "byteOffset": 14242080,
      "componentType": 5126,
      "count": 65532,
      "max": [
        1.0,
        1.0,
        1.0
      ],
      "min": [
        -1.0,
        -1.0,
        -1.0
      ],
      "type": "VEC3"
    },
    {
      "bufferView": 0,
      "byteOffset": 6645576,
      "componentType": 5125,
      "count": 172176,
      "type": "SCALAR"
    },
    {
      "bufferView": 2,
      "byteOffset": 15028464,
      "componentType": 5126,
      "count": 65532,
      "max": [
        280.3442687988281,
        -34.89672088623047,
        2.158421754837036
      ],
      "min": [
        12.569067001342773,
        -93.70390319824219,
        0.10500472038984299
      ],
      "type": "VEC3"
    },
    {
      "bufferView": 2,
      "byteOffset": 15814848,
      "componentType": 5126,
      "count": 65532,
      "max": [
        1.0,
        1.0,
        1.0
      ],
      "min": [
        -1.0,
        -1.0,
        -1.0
      ],
      "type": "VEC3"
    },
    {
      "bufferView": 0,
      "byteOffset": 7334280,
      "componentType": 5125,
      "count": 174546,
      "type": "SCALAR"
    },
    {
      "bufferView": 2,
      "byteOffset": 16601232,
      "componentType": 5126,
      "count": 65532,
      "max": [
        280.0545959472656,
        -34.89672088623047,
        2.158421754837036
      ],
      "min": [
        13.249176979064941,
        -93.70390319824219,
        0.10500472038984299
      ],
      "type": "VEC3"
    },
    {
      "bufferView": 2,
      "byteOffset": 17387616,
      "componentType": 5126,
      "count": 65532,
      "max": [
        1.0,
        1.0,
        1.0
      ],
      "min": [
        -1.0,
        -1.0,
        -1.0
      ],
      "type": "VEC3"
    },
    {
      "bufferView": 0,
      "byteOffset": 8032464,
      "componentType": 5125,
      "count": 174171,
      "type": "SCALAR"
    },
    {
      "bufferView": 2,
      "byteOffset": 18174000,
      "componentType": 5126,
      "count": 65532,
      "max": [
        279.7487487792969,
        -34.89672088623047,
        2.158421754837036
      ],
      "min": [
        12.569067001342773,
        -93.70390319824219,
        0.10500472038984299
      ],
      "type": "VEC3"
    },
    {
      "bufferView": 2,
      "byteOffset": 18960384,
      "componentType": 5126,
      "count": 65532,
      "max": [
        1.0,
        1.0,
        1.0
      ],
      "min": [
        -1.0,
        -1.0,
        -1.0
      ],
      "type": "VEC3"
    },
    {
      "bufferView": 0,
      "byteOffset": 8729148,
      "componentType": 5125,
      "count": 170298,
      "type": "SCALAR"
    },
    {
      "bufferView": 2,
      "byteOffset": 19746768,
      "componentType": 5126,
      "count": 65532,
      "max": [
        45.11760330200195,
        -35.070556640625,
        2.158421754837036
      ],
      "min": [
        12.569067001342773,
        -93.70390319824219,
        0.10500472038984299
      ],
      "type": "VEC3"
    },
    {
      "bufferView": 2,
      "byteOffset": 20533152,
      "componentType": 5126,
      "count": 65532,
      "max": [
        1.0,
        1.0,
        1.0
      ],
      "min": [
        -1.0,
        -1.0,
        -1.0
      ],
      "type": "VEC3"
    },
    {
      "bufferView": 0,
      "byteOffset": 9410340,
      "componentType": 5125,
      "count": 173517,
      "type": "SCALAR"
    },
    {
      "bufferView": 2,
      "byteOffset": 21319536,
      "componentType": 5126,
      "count": 39066,
      "max": [
        44.957401275634766,
        -50.054203033447266,
        2.158421754837036
      ],
      "min": [
        12.569067001342773,
        -82.69963836669922,
        0.10500472038984299
      ],
      "type": "VEC3"
    },
    {
      "bufferView": 2,
      "byteOffset": 21788328,
      "componentType": 5126,
      "count": 39066,
      "max": [
        1.0,
        1.0,
        1.0
      ],
      "min": [
        -1.0,
        -1.0,
        -1.0
      ],
      "type": "VEC3"
    },
    {
      "bufferView": 0,
      "byteOffset": 10104408,
      "componentType": 5125,
      "count": 103374,
      "type": "SCALAR"
    },
    {
      "bufferView": 2,
      "byteOffset": 22257120,
      "componentType": 5126,
      "count": 65532,
      "max": [
        261.058837890625,
        -34.86101150512695,
        2.29081654548645
      ],
      "min": [
        12.502138137817383,
        -93.77083587646484,
        1.6619453430175781
      ],
      "type": "VEC3"
    },
    {
      "bufferView": 2,
      "byteOffset": 23043504,
      "componentType": 5126,
      "count": 65532,
      "max": [
        1.0,
        1.0,
        1.0
      ],
      "min": [
        -1.0,
        -1.0,
        -1.0
      ],
      "type": "VEC3"
    },
    {
      "bufferView": 0,
      "byteOffset": 10517904,
      "componentType": 5125,
      "count": 280869,
      "type": "SCALAR"
    },
    {
      "bufferView": 2,
      "byteOffset": 23829888,
      "componentType": 5126,
      "count": 65532,
      "max": [
        280.4112243652344,
        -34.882728576660156,
        2.29081654548645
      ],
      "min": [
        12.502138137817383,
        -93.77083587646484,
        1.6619453430175781
      ],
      "type": "VEC3"
    },
    {
      "bufferView": 2,
      "byteOffset": 24616272,
      "componentType": 5126,
      "count": 65532,
      "max": [
        1.0,
        1.0,
        1.0
      ],
      "min": [
        -1.0,
        -1.0,
        -1.0
      ],
      "type": "VEC3"
    },
    {
      "bufferView": 0,
      "byteOffset": 11641380,
      "componentType": 5125,
      "count": 267237,
      "type": "SCALAR"
    },
    {
      "bufferView": 2,
      "byteOffset": 25402656,
      "componentType": 5126,
      "count": 30436,
      "max": [
        280.4112243652344,
        -34.86101150512695,
        2.29081654548645
      ],
      "min": [
        12.502138137817383,
        -93.77083587646484,
        1.6619453430175781
      ],
      "type": "VEC3"
    },
    {
      "bufferView": 2,
      "byteOffset": 25767888,
      "componentType": 5126,
      "count": 30436,
      "max": [
        1.0,
        1.0,
        1.0
      ],
      "min": [
        -1.0,
        -1.0,
        -1.0
      ],
      "type": "VEC3"
    },
    {
      "bufferView": 0,
      "byteOffset": 12710328,
      "componentType": 5125,
      "count": 123174,
      "type": "SCALAR"
    },
    {
      "bufferView": 2,
      "byteOffset": 26133120,
      "componentType": 5126,
      "count": 65532,
      "max": [
        280.4126892089844,
        -50.264949798583984,
        1.8366047143936157
      ],
      "min": [
        12.500666618347168,
        -93.77230072021484,
        0.03660472109913826
      ],
      "type": "VEC3"
    },
    {
      "bufferView": 2,
      "byteOffset": 26919504,
      "componentType": 5126,
      "count": 65532,
      "max": [
        1.0,
        1.0,
        1.0
      ],
      "min": [
        -1.0,
        -1.0,
        -1.0
      ],
      "type": "VEC3"
    },
    {
      "bufferView": 0,
      "byteOffset": 13203024,
      "componentType": 5125,
      "count": 233253,
      "type": "SCALAR"
    },
    {
      "bufferView": 2,
      "byteOffset": 27705888,
      "componentType": 5126,
      "count": 27965,
      "max": [
        280.4126892089844,
        -35.10747146606445,
        1.8366047143936157
      ],
      "min": [
        12.500666618347168,
        -93.77230072021484,
        0.03660472109913826
      ],
      "type": "VEC3"
    },
    {
      "bufferView": 2,
      "byteOffset": 28041468,
      "componentType": 5126,
      "count": 27965,
      "max": [
        1.0,
        1.0,
        1.0
      ],
      "min": [
        -1.0,
        -1.0,
        -1.0
      ],
      "type": "VEC3"
    },
    {
      "bufferView": 0,
      "byteOffset": 14136036,
      "componentType": 5125,
      "count": 97911,
      "type": "SCALAR"
    },
    {
      "bufferView": 2,
      "byteOffset": 28377048,
      "componentType": 5126,
      "count": 6578,
      "max": [
        291.92913818359375,
        31.325458526611328,
        28.897640228271484
      ],
      "min": [
        0.9842519760131836,
        -105.28874969482422,
        -1.421084963300432e-14
      ],
      "type": "VEC3"
    },
    {
      "bufferView": 2,
      "byteOffset": 28455984,
      "componentType": 5126,
      "count": 6578,
      "max": [
        1.0,
        1.0,
        1.0
      ],
      "min": [
        -1.0,
        -1.0,
        -1.0
      ],
      "type": "VEC3"
    },
    {
      "bufferView": 0,
      "byteOffset": 14527680,
      "componentType": 5125,
      "count": 18471,
      "type": "SCALAR"
    },
    {
      "bufferView": 2,
      "byteOffset": 28534920,
      "componentType": 5126,
      "count": 1380,
      "max": [
        292.91339111328125,
        32.30971145629883,
        29.52756118774414
      ],
      "min": [
        -6.046382741275308e-14,
        -106.27300262451172,
        17.007875442504883
      ],
      "type": "VEC3"
    },
    {
      "bufferView": 2,
      "byteOffset": 28551480,
      "componentType": 5126,
      "count": 1380,
      "max": [
        1.0,
        1.0,
        1.0
      ],
      "min": [
        -1.0,
        -1.0,
        -1.0
      ],
      "type": "VEC3"
    },
    {
      "bufferView": 0,
      "byteOffset": 14601564,
      "componentType": 5125,
      "count": 3576,
      "type": "SCALAR"
    },
    {
      "bufferView": 2,
      "byteOffset": 28568040,
      "componentType": 5126,
      "count": 4902,
      "max": [
        155.88796997070313,
        -41.77165603637695,
        6.050540924072266
      ],
      "min": [
        49.28431701660156,
        -68.48438262939453,
        -0.32299771904945374
      ],
      "type": "VEC3"
    },
    {
      "bufferView": 2,
      "byteOffset": 28626864,
      "componentType": 5126,
      "count": 4902,
      "max": [
        0.999937891960144,
        0.9988154172897339,
        1.0
      ],
      "min": [
        -0.999937891960144,
        -0.9988154172897339,
        -1.0
      ],
      "type": "VEC3"
    },
    {
      "bufferView": 0,
      "byteOffset": 14615868,
      "componentType": 5125,
      "count": 17964,
      "type": "SCALAR"
    },
    {
      "bufferView": 2,
      "byteOffset": 28685688,
      "componentType": 5126,
      "count": 60084,
      "max": [
        156.465087890625,
        -38.238861083984375,
        45.58857345581055
      ],
      "min": [
        51.550018310546875,
        -67.04083251953125,
        15.128820419311523
      ],
      "type": "VEC3"
    },
    {
      "bufferView": 2,
      "byteOffset": 29406696,
      "componentType": 5126,
      "count": 60084,
      "max": [
        1.0,
        0.9999804496765137,
        0.9999995827674866
      ],
      "min": [
        -1.0,
        -0.9999804496765137,
        -0.9999995827674866
      ],
      "type": "VEC3"
    },
    {
      "bufferView": 1,
      "componentType": 5126,
      "count": 60084,
      "max": [
        1.0472999811172485,
        2.360157012939453
      ],
      "min": [
        -1.0483050346374512,
        -0.6881754994392395
      ],
      "type": "VEC2"
    },
    {
      "bufferView": 0,
      "byteOffset": 14687724,
      "componentType": 5125,
      "count": 60120,
      "type": "SCALAR"
    },
    {
      "bufferView": 2,
      "byteOffset": 30127704,
      "componentType": 5126,
      "count": 6820,
      "max": [
        156.1626739501953,
        -41.7647705078125,
        27.374177932739258
      ],
      "min": [
        50.437801361083984,
        -68.40299987792969,
        2.0663373470306396
      ],
      "type": "VEC3"
    },
    {
      "bufferView": 2,
      "byteOffset": 30209544,
      "componentType": 5126,
      "count": 6820,
      "max": [
        1.0,
        0.9999978542327881,
        0.9999964833259583
      ],
      "min": [
        -1.0,
        -0.9999978542327881,
        -0.9999964833259583
      ],
      "type": "VEC3"
    },
    {
      "bufferView": 0,
      "byteOffset": 14928204,
      "componentType": 5125,
      "count": 37224,
      "type": "SCALAR"
    },
    {
      "bufferView": 2,
      "byteOffset": 30291384,
      "componentType": 5126,
      "count": 1664,
      "max": [
        154.4263458251953,
        -42.46271896362305,
        13.988129615783691
      ],
      "min": [
        51.126041412353516,
        -67.72578430175781,
        1.8763282299041748
      ],
      "type": "VEC3"
    },
    {
      "bufferView": 2,
      "byteOffset": 30311352,
      "componentType": 5126,
      "count": 1664,
      "max": [
        0.9999892711639404,
        0.9998455047607422,
        1.0
      ],
      "min": [
        -0.9999892711639404,
        -0.9998455047607422,
        -1.0
      ],
      "type": "VEC3"
    },
    {
      "bufferView": 0,
      "byteOffset": 15077100,
      "componentType": 5125,
      "count": 6528,
      "type": "SCALAR"
    },
    {
      "bufferView": 2,
      "byteOffset": 30331320,
      "componentType": 5126,
      "count": 2948,
      "max": [
        151.91648864746094,
        -52.59888458251953,
        16.331289291381836
      ],
      "min": [
        56.098609924316406,
        -60.690853118896484,
        11.420044898986816
      ],
      "type": "VEC3"
    },
    {
      "bufferView": 2,
      "byteOffset": 30366696,
      "componentType": 5126,
      "count": 2948,
      "max": [
        1.0,
        0.9998208284378052,
        0.9994918704032898
      ],
      "min": [
        -1.0,
        -0.9998208284378052,
        -0.9994918704032898
      ],
      "type": "VEC3"
    },
    {
      "bufferView": 0,
      "byteOffset": 15103212,
      "componentType": 5125,
      "count": 6864,
      "type": "SCALAR"
    },
    {
      "bufferView": 2,
      "byteOffset": 30402072,
      "componentType": 5126,
      "count": 3768,
      "max": [
        155.92092895507813,
        -41.77522659301758,
        1.772476077079773
      ],
      "min": [
        49.36155700683594,
        -68.42958068847656,
        -0.3539970815181732
      ],
      "type": "VEC3"
    },
    {
      "bufferView": 2,
      "byteOffset": 30447288,
      "componentType": 5126,
      "count": 3768,
      "max": [
        0.9999856352806091,
        0.9999348521232605,
        0.9992122054100037
      ],
      "min": [
        -0.9999856352806091,
        -0.9999348521232605,
        -0.9992122054100037
      ],
      "type": "VEC3"
    },
    {
      "bufferView": 0,
      "byteOffset": 15130668,
      "componentType": 5125,
      "count": 10212,
      "type": "SCALAR"
    }
  ],
  "asset": {
    "extras": {
      "author": "ebenvanrensburg (https://sketchfab.com/ebenvanrensburg)",
      "license": "CC-BY-4.0 (http://creativecommons.org/licenses/by/4.0/)",
      "source": "https://sketchfab.com/3d-models/lab-furniture-c2fab7e02370416c9f9d9c0aa555e58e",
      "title": "Lab Furniture"
    },
    "generator": "Sketchfab-16.12.0",
    "version": "2.0"
  },
  "bufferViews": [
    {
      "buffer": 0,
      "byteLength": 15171516,
      "name": "floatBufferViews",
      "target": 34963
    },
    {
      "buffer": 0,
      "byteLength": 480672,
      "byteOffset": 15171516,
      "byteStride": 8,
      "name": "floatBufferViews",
      "target": 34962
    },
    {
      "buffer": 0,
      "byteLength": 30492504,
      "byteOffset": 15652188,
      "byteStride": 12,
      "name": "floatBufferViews",
      "target": 34962
    }
  ],
  "buffers": [
    {
      "byteLength": 46144692,
      "uri": "scene.bin"
    }
  ],
  "extensionsUsed": [
    "KHR_materials_specular"
  ],
  "images": [
    {
      "uri": "textures/Material_3_baseColor.jpeg"
    }
  ],
  "materials": [
    {
      "extensions": {
        "KHR_materials_specular": {
          "specularColorFactor": [
            1.0,
            1.0,
            1.0
          ],
          "specularFactor": 0.13257183259987076
        }
      },
      "name": "Marc_Shirt",
      "pbrMetallicRoughness": {
        "baseColorFactor": [
          0.03393304046881481,
          0.18549011589459652,
          0.398045601540723,
          1.0
        ],
        "metallicFactor": 0.3702868427789494,
        "roughnessFactor": 0.0
      }
    },
    {
      "name": "0136_Charcoal",
      "pbrMetallicRoughness": {
        "baseColorFactor": [
          0.009615739678686761,
          0.009615739678686761,
          0.009615739678686761,
          1.0
        ],
        "metallicFactor": 0.0,
        "roughnessFactor": 0.6
      }
    },
    {
      "name": "Chrome1",
      "pbrMetallicRoughness": {
        "baseColorFactor": [
          0.10829235995947611,
          0.10829235995947611,
          0.10829235995947611,
          1.0
        ],
        "metallicFactor": 0.0,
        "roughnessFactor": 0.6
      }
    },
    {
      "name": "steel",
      "pbrMetallicRoughness": {
        "baseColorFactor": [
          0.756863,
          0.756863,
          0.756863,
          1.0
        ],
        "metallicFactor": 0.7969548097670393,
        "roughnessFactor": 0.19352439931245502
      }
    },
    {
      "name": "Default",
      "pbrMetallicRoughness": {
        "baseColorFactor": [
          0.698039,
          0.698039,
          0.698039,
          1.0
        ],
        "metallicFactor": 0.0,
        "roughnessFactor": 0.6
      }
    },
    {
      "name": "Black",
      "pbrMetallicRoughness": {
        "baseColorFactor": [
          0.14902,
          0.14902,
          0.14902,
          1.0
        ],
        "metallicFactor": 0.0,
        "roughnessFactor": 0.6
      }
    },
    {
      "name": "Dark_Gray",
      "pbrMetallicRoughness": {
        "baseColorFactor": [
          0.407843,
          0.407843,
          0.407843,
          1.0
        ],
        "metallicFactor": 0.0,
        "roughnessFactor": 0.6
      }
    },
    {
      "name": "Matt_Black_Paint",
      "pbrMetallicRoughness": {
        "baseColorFactor": [
          0.003817572869280599,
          0.003817572869280599,
          0.003817572869280599,
          1.0
        ],
        "metallicFactor": 0.0,
        "roughnessFactor": 0.6
      }
    },
    {
      "name": "material",
      "pbrMetallicRoughness": {
        "metallicFactor": 0.5165730028891516,
        "roughnessFactor": 0.15085760261364606
      }
    },
    {
      "name": "Material_1",
      "pbrMetallicRoughness": {
        "baseColorFactor": [
          0.0196078,
          0.0196078,
          0.0196078,
          1.0
        ],
        "metallicFactor": 0.0,
        "roughnessFactor": 0.6
      }
    },
    {
      "name": "Material_3",
      "pbrMetallicRoughness": {
        "baseColorTexture": {
          "index": 0
        },
        "metallicFactor": 0.0,
        "roughnessFactor": 0.3554266070144214
      }
    },
    {
      "extensions": {
        "KHR_materials_specular": {
          "specularColorFactor": [
            1.0,
            1.0,
            1.0
          ],
          "specularFactor": 0.7908595530957808
        }
      },
      "name": "Material_4",
      "pbrMetallicRoughness": {
        "baseColorFactor": [
          0.051766289830066425,
          0.051766289830066425,
          0.051766289830066425,
          1.0
        ],
        "roughnessFactor": 0.38590289037071357
      }
    },
    {
      "name": "Material_5",
      "pbrMetallicRoughness": {
        "baseColorFactor": [
          0.737255,
          0.729412,
          0.698039,
          1.0
        ],
        "metallicFactor": 0.0,
        "roughnessFactor": 0.6
      }
    },
    {
      "name": "Material_6",
      "pbrMetallicRoughness": {
        "baseColorFactor": [
          0.0901961,
          0.0901961,
          0.0901961,
          1.0
        ],
        "metallicFactor": 0.0,
        "roughnessFactor": 0.6
      }
    },
    {
      "name": "Material_7",
      "pbrMetallicRoughness": {
        "baseColorFactor": [
          0.498039,
          0.498039,
          0.498039,
          1.0
        ],
        "metallicFactor": 0.0,
        "roughnessFactor": 0.6
      }
    }
  ],
  "meshes": [
    {
      "name": "Material2",
      "primitives": [
        {
          "attributes": {
            "NORMAL": 1,
            "POSITION": 0
          },
          "indices": 2,
          "material": 0,
          "mode": 4
        }
      ]
    },
    {
      "name": "Material2",
      "primitives": [
        {
          "attributes": {
            "NORMAL": 4,
            "POSITION": 3
          },
          "indices": 5,
          "material": 0,
          "mode": 4
        }
      ]
    },
    {
      "name": "Material2",
      "primitives": [
        {
          "attributes": {
            "NORMAL": 7,
            "POSITION": 6
          },
          "indices": 8,
          "material": 0,
          "mode": 4
        }
      ]
    },
    {
      "name": "Material2",
      "primitives": [
        {
          "attributes": {
            "NORMAL": 10,
            "POSITION": 9
          },
          "indices": 11,
          "material": 0,
          "mode": 4
        }
      ]
    },
    {
      "name": "Material2",
      "primitives": [
        {
          "attributes": {
            "NORMAL": 13,
            "POSITION": 12
          },
          "indices": 14,
          "material": 0,
          "mode": 4
        }
      ]
    },
    {
      "name": "Material2",
      "primitives": [
        {
          "attributes": {
            "NORMAL": 16,
            "POSITION": 15
          },
          "indices": 17,
          "material": 0,
          "mode": 4
        }
      ]
    },
    {
      "name": "Material2",
      "primitives": [
        {
          "attributes": {
            "NORMAL": 19,
            "POSITION": 18
          },
          "indices": 20,
          "material": 1,
          "mode": 4
        }
      ]
    },
    {
      "name": "Material2",
      "primitives": [
        {
          "attributes": {
            "NORMAL": 22,
            "POSITION": 21
          },
          "indices": 23,
          "material": 2,
          "mode": 4
        }
      ]
    },
    {
      "name": "Material3",
      "primitives": [
        {
          "attributes": {
            "NORMAL": 25,
            "POSITION": 24
          },
          "indices": 26,
          "material": 3,
          "mode": 4
        }
      ]
    },
    {
      "name": "Material3",
      "primitives": [
        {
          "attributes": {
            "NORMAL": 28,
            "POSITION": 27
          },
          "indices": 29,
          "material": 3,
          "mode": 4
        }
      ]
    },
    {
      "name": "Material3",
      "primitives": [
        {
          "attributes": {
            "NORMAL": 31,
            "POSITION": 30
          },
          "indices": 32,
          "material": 3,
          "mode": 4
        }
      ]
    },
    {
      "name": "Material3",
      "primitives": [
        {
          "attributes": {
            "NORMAL": 34,
            "POSITION": 33
          },
          "indices": 35,
          "material": 3,
          "mode": 4
        }
      ]
    },
    {
      "name": "Material3",
      "primitives": [
        {
          "attributes": {
            "NORMAL": 37,
            "POSITION": 36
          },
          "indices": 38,
          "material": 4,
          "mode": 4
        }
      ]
    },
    {
      "name": "Material3",
      "primitives": [
        {
          "attributes": {
            "NORMAL": 40,
            "POSITION": 39
          },
          "indices": 41,
          "material": 4,
          "mode": 4
        }
      ]
    },
    {
      "name": "Material3",
      "primitives": [
        {
          "attributes": {
            "NORMAL": 43,
            "POSITION": 42
          },
          "indices": 44,
          "material": 4,
          "mode": 4
        }
      ]
    },
    {
      "name": "Material3",
      "primitives": [
        {
          "attributes": {
            "NORMAL": 46,
            "POSITION": 45
          },
          "indices": 47,
          "material": 4,
          "mode": 4
        }
      ]
    },
    {
      "name": "Material3",
      "primitives": [
        {
          "attributes": {
            "NORMAL": 49,
            "POSITION": 48
          },
          "indices": 50,
          "material": 4,
          "mode": 4
        }
      ]
    },
    {
      "name": "Material3",
      "primitives": [
        {
          "attributes": {
            "NORMAL": 52,
            "POSITION": 51
          },
          "indices": 53,
          "material": 4,
          "mode": 4
        }
      ]
    },
    {
      "name": "Material3",
      "primitives": [
        {
          "attributes": {
            "NORMAL": 55,
            "POSITION": 54
          },
          "indices": 56,
          "material": 5,
          "mode": 4
        }
      ]
    },
    {
      "name": "Material3",
      "primitives": [
        {
          "attributes": {
            "NORMAL": 58,
            "POSITION": 57
          },
          "indices": 59,
          "material": 5,
          "mode": 4
        }
      ]
    },
    {
      "name": "Material3",
      "primitives": [
        {
          "attributes": {
            "NORMAL": 61,
            "POSITION": 60
          },
          "indices": 62,
          "material": 5,
          "mode": 4
        }
      ]
    },
    {
      "name": "Material2",
      "primitives": [
        {
          "attributes": {
            "NORMAL": 64,
            "POSITION": 63
          },
          "indices": 65,
          "material": 6,
          "mode": 4
        }
      ]
    },
    {
      "name": "Material2",
      "primitives": [
        {
          "attributes": {
            "NORMAL": 67,
            "POSITION": 66
          },
          "indices": 68,
          "material": 6,
          "mode": 4
        }
      ]
    },
    {
      "name": "Material2",
      "primitives": [
        {
          "attributes": {
            "NORMAL": 70,
            "POSITION": 69
          },
          "indices": 71,
          "material": 7,
          "mode": 4
        }
      ]
    },
    {
      "name": "Material2",
      "primitives": [
        {
          "attributes": {
            "NORMAL": 73,
            "POSITION": 72
          },
          "indices": 74,
          "material": 8,
          "mode": 4
        }
      ]
    },
    {
      "name": "Material2",
      "primitives": [
        {
          "attributes": {
            "NORMAL": 76,
            "POSITION": 75
          },
          "indices": 77,
          "material": 9,
          "mode": 4
        }
      ]
    },
    {
      "name": "Material2",
      "primitives": [
        {
          "attributes": {
            "NORMAL": 79,
            "POSITION": 78,
            "TEXCOORD_0": 80
          },
          "indices": 81,
          "material": 10,
          "mode": 4
        }
      ]
    },
    {
      "name": "Material2",
      "primitives": [
        {
          "attributes": {
            "NORMAL": 83,
            "POSITION": 82
          },
          "indices": 84,
          "material": 11,
          "mode": 4
        }
      ]
    },
    {
      "name": "Material2",
      "primitives": [
        {
          "attributes": {
            "NORMAL": 86,
            "POSITION": 85
          },
          "indices": 87,
          "material": 12,
          "mode": 4
        }
      ]
    },
    {
      "name": "Material2",
      "primitives": [
        {
          "attributes": {
            "NORMAL": 89,
            "POSITION": 88
          },
          "indices": 90,
          "material": 13,
          "mode": 4
        }
      ]
    },
    {
      "name": "Material2",
      "primitives": [
        {
          "attributes": {
            "NORMAL": 92,
            "POSITION": 91
          },
          "indices": 93,
          "material": 14,
          "mode": 4
        }
      ]
    }
  ],
  "nodes": [
    {
      "children": [
        1
      ],
      "matrix": [
        1.0,
        0.0,
        0.0,
        0.0,
        0.0,
        2.220446049250313e-16,
        -1.0,
        0.0,
        0.0,
        1.0,
        2.220446049250313e-16,
        0.0,
        0.0,
        0.0,
        0.0,
        1.0
      ],
      "name": "Sketchfab_model"
    },
    {
      "children": [
        2,
        3,
        4,
        5,
        6,
        7,
        8,
        9,
        10,
        11,
        12,
        13,
        14,
        15,
        16,
        17,
        18,
        19,
        20,
        21,
        22,
        23,
        24,
        25,
        26,
        27,
        28,
        29,
        30,
        31,
        32,
        33
      ],
      "name": "Collada visual scene group"
    },
    {
      "mesh": 0,
      "name": "Material2"
    },
    {
      "mesh": 1,
      "name": "Material2"
    },
    {
      "mesh": 2,
      "name": "Material2"
    },
    {
      "mesh": 3,
      "name": "Material2"
    },
    {
      "mesh": 4,
      "name": "Material2"
    },
    {
      "mesh": 5,
      "name": "Material2"
    },
    {
      "mesh": 6,
      "name": "Material2"
    },
    {
      "mesh": 7,
      "name": "Material2"
    },
    {
      "mesh": 8,
      "name": "Material3"
    },
    {
      "mesh": 9,
      "name": "Material3"
    },
    {
      "mesh": 10,
      "name": "Material3"
    },
    {
      "mesh": 11,
      "name": "Material3"
    },
    {
      "mesh": 12,
      "name": "Material3"
    },
    {
      "mesh": 13,
      "name": "Material3"
    },
    {
      "mesh": 14,
      "name": "Material3"
    },
    {
      "mesh": 15,
      "name": "Material3"
    },
    {
      "mesh": 16,
      "name": "Material3"
    },
    {
      "mesh": 17,
      "name": "Material3"
    },
    {
      "mesh": 18,
      "name": "Material3"
    },
    {
      "mesh": 19,
      "name": "Material3"
    },
    {
      "mesh": 20,
      "name": "Material3"
    },
    {
      "mesh": 21,
      "name": "Material2"
    },
    {
      "mesh": 22,
      "name": "Material2"
    },
    {
      "mesh": 23,
      "name": "Material2"
    },
    {
      "mesh": 24,
      "name": "Material2"
    },
    {
      "mesh": 25,
      "name": "Material2"
    },
    {
      "mesh": 26,
      "name": "Material2"
    },
    {
      "mesh": 27,
      "name": "Material2"
    },
    {
      "mesh": 28,
      "name": "Material2"
    },
    {
      "mesh": 29,
      "name": "Material2"
    },
    {
      "mesh": 30,
      "name": "Material2"
    },
    {
      "children": [
        34
      ],
      "name": "SketchUp"
    },
    {
      "children": [
        35
      ],
      "matrix": [
        0.8224401,
        0.5688516,
        -8.326673e-17,
        0.0,
        -0.259818,
        0.3756424,
        0.8895996,
        0.0,
        0.5060502,
        -0.7316424,
        0.4567413,
        0.0,
        394.1679,
        -330.9133,
        215.0877,
        1.0
      ],
      "name": "skp_camera_Last_Saved_SketchUp_View"
    },
    {
      "name": "ID1"
    }
  ],
  "samplers": [
    {
      "magFilter": 9729,
      "minFilter": 9987,
      "wrapS": 10497,
      "wrapT": 10497
    }
  ],
  "scene": 0,
  "scenes": [
    {
      "name": "Sketchfab_Scene",
      "nodes": [
        0
      ]
    }
  ],
  "textures": [
    {
      "sampler": 0,
      "source": 0
    }
  ]
}
